<svg version="1.1" xmlns="http://www.w3.org/2000/svg" width="32" height="32" viewBox="0 0 32 32">
    <title>KKKK</title>
    <path
        d="M16.352 4.043c-0.011 0.021-0.005 0.075 0.021 0.117 0.037 0.059 0.064 0.064 0.112 0.016 0.032-0.032 0.043-0.085 0.027-0.117-0.043-0.069-0.123-0.075-0.16-0.016z">
    </path>
    <path
        d="M16.325 4.459c-0.043 0.112-0.149 0.245-0.277 0.331-0.112 0.080-0.24 0.219-0.288 0.315-0.091 0.187-0.096 0.229-0.032 0.325 0.032 0.059 0.085 0.043 0.245-0.069 0.112-0.075 0.261-0.149 0.331-0.165 0.192-0.048 0.469 0.021 0.619 0.16 0.128 0.123 0.144 0.123 0.171 0.032 0.053-0.16-0.107-0.464-0.293-0.56-0.107-0.059-0.208-0.171-0.272-0.325-0.059-0.128-0.112-0.235-0.117-0.235-0.011 0-0.048 0.085-0.085 0.192z">
    </path>
    <path
        d="M16.229 5.547c-0.181 0.075-0.149 0.101 0.085 0.069 0.117-0.016 0.283-0.005 0.373 0.027 0.208 0.075 0.213 0.037 0.005-0.069-0.171-0.091-0.288-0.096-0.464-0.027z">
    </path>
    <path
        d="M16.363 5.851c0.064 0.011 0.16 0.011 0.213 0 0.048-0.016-0.005-0.027-0.123-0.021-0.117 0-0.16 0.011-0.091 0.021z">
    </path>
    <path
        d="M16.176 6.24c-0.091 0.037-0.123 0.096-0.123 0.213 0 0.181 0 0.181 0.176 0.101 0.096-0.043 0.171-0.037 0.32 0.027l0.197 0.080v-0.181c0-0.267-0.251-0.368-0.571-0.24z">
    </path>
    <path
        d="M16.069 6.72c-0.069 0.027-0.123 0.085-0.123 0.133 0 0.064 0.021 0.075 0.101 0.027 0.155-0.080 0.501-0.064 0.624 0.027 0.133 0.101 0.176 0.101 0.16-0.005-0.032-0.208-0.453-0.304-0.763-0.181z">
    </path>
    <path
        d="M16.149 7.099c-0.064 0.032-0.096 0.117-0.096 0.229 0 0.096-0.059 0.347-0.133 0.56-0.117 0.352-0.123 0.416-0.075 0.821 0.032 0.24 0.064 0.709 0.075 1.045 0.032 0.859 0.016 0.827 0.411 0.677l0.331-0.123 0.24 0.144c0.133 0.085 0.341 0.171 0.459 0.187 0.363 0.069 0.4 0.133 0.053 0.101-0.176-0.016-0.432-0.075-0.565-0.133-0.245-0.096-0.256-0.096-0.533 0-0.245 0.085-0.288 0.117-0.277 0.224 0.005 0.117-0.011 0.128-0.229 0.107-0.187-0.011-0.235-0.037-0.235-0.117s-0.037-0.101-0.181-0.101c-0.149 0-0.187 0.021-0.208 0.117-0.016 0.091-0.027 0.075-0.032-0.053-0.005-0.165 0-0.171 0.203-0.171 0.117 0 0.229-0.027 0.245-0.053 0.021-0.032 0.043-0.347 0.059-0.699 0.011-0.357 0.032-0.667 0.048-0.683 0.011-0.021 0.037-0.208 0.053-0.411l0.027-0.368-0.155 0.453c-0.091 0.251-0.283 0.837-0.427 1.307-0.272 0.853-0.272 0.859-0.464 0.928l-0.192 0.069 0.139 0.144c0.101 0.107 0.139 0.203 0.139 0.352v0.208l0.24-0.235c0.133-0.128 0.24-0.277 0.24-0.325 0-0.229 0.464-0.384 0.741-0.245 0.091 0.048 0.165 0.059 0.165 0.032 0-0.112 0.144-0.037 0.32 0.165l0.187 0.213 0.251-0.213 0.245-0.213 0.107 0.171c0.117 0.187 0.112 0.288-0.011 0.123-0.091-0.123-0.229-0.075-0.299 0.107-0.027 0.075-0.075 0.133-0.107 0.133-0.027 0-0.053 0.075-0.053 0.165 0 0.149 0.016 0.165 0.123 0.133 0.064-0.016 0.181-0.032 0.267-0.032 0.117 0 0.144-0.027 0.144-0.123 0-0.069 0.048-0.171 0.101-0.219 0.096-0.091 0.107-0.091 0.16 0.011 0.048 0.085 0.037 0.101-0.037 0.096-0.165-0.011-0.144 0.219 0.037 0.373 0.091 0.075 0.165 0.16 0.165 0.192 0 0.027-0.075-0.011-0.165-0.085-0.123-0.101-0.224-0.139-0.4-0.139-0.128 0-0.235 0.016-0.235 0.037 0.005 0.080 0.309 0.379 0.416 0.411 0.123 0.043 0.437 0.347 0.437 0.427 0 0.027-0.053 0-0.117-0.059-0.229-0.203-0.251-0.181-0.123 0.101 0.165 0.368 0.208 0.624 0.144 0.864-0.037 0.123-0.037 0.203-0.005 0.224 0.085 0.048 0.256-0.139 0.224-0.235-0.027-0.085-0.021-0.085 0.064 0 0.085 0.080 0.085 0.112 0.027 0.251-0.059 0.144-0.091 0.165-0.272 0.165-0.112 0-0.219 0.021-0.235 0.053-0.021 0.032 0.117 0.053 0.368 0.053h0.405v-0.789c0-0.432-0.027-0.88-0.059-0.997s-0.069-0.304-0.085-0.416c-0.016-0.107-0.048-0.213-0.075-0.229-0.096-0.059-0.053-0.389 0.059-0.459 0.139-0.091 0.133-0.107-0.053-0.219-0.096-0.059-0.16-0.139-0.16-0.208 0-0.059-0.032-0.139-0.075-0.171-0.085-0.064-1.152-3.28-1.152-3.467 0-0.064-0.027-0.144-0.064-0.181-0.080-0.080-0.405-0.080-0.533-0.005zM18.080 12.64c0 0.027-0.048 0.053-0.112 0.053-0.059 0-0.091-0.027-0.075-0.053 0.016-0.032 0.069-0.053 0.112-0.053s0.075 0.021 0.075 0.053z">
    </path>
    <path
        d="M15.76 9.168c-0.016 0.032-0.021 0.101-0.005 0.155 0.016 0.048-0.005 0.421-0.043 0.821l-0.064 0.736h0.309l-0.037-0.299c-0.021-0.171-0.043-0.555-0.059-0.864-0.016-0.56-0.032-0.651-0.101-0.549z">
    </path>
    <path
        d="M22.443 9.899c-0.027 0.021-0.043 0.123-0.043 0.219 0 0.101-0.037 0.219-0.080 0.261-0.091 0.096-0.107 0.293-0.021 0.379 0.069 0.069-0.107 0.859-0.277 1.216-0.064 0.139-0.363 0.507-0.667 0.832-0.304 0.32-0.608 0.683-0.667 0.811-0.144 0.272-0.16 0.736-0.032 0.976 0.085 0.165 0.405 0.475 0.443 0.432 0.016-0.011-0.037-0.149-0.112-0.309-0.261-0.56-0.128-1.12 0.379-1.6 0.277-0.261 0.667-0.539 0.704-0.501 0.011 0.011-0.085 0.144-0.219 0.299-0.464 0.533-0.688 1.179-0.571 1.685 0.053 0.245 0.075 0.277 0.155 0.229 0.069-0.037 0.107-0.139 0.128-0.384 0.059-0.587 0.288-1.067 0.917-1.883 0.267-0.352 0.347-0.544 0.288-0.715-0.027-0.075-0.080-0.341-0.123-0.587-0.064-0.389-0.064-0.459 0-0.523 0.107-0.107 0.091-0.251-0.027-0.363-0.064-0.053-0.112-0.176-0.123-0.304-0.011-0.117-0.032-0.192-0.053-0.171zM22.475 11.68c0.032 0.181-0.011 0.48-0.080 0.48-0.021 0-0.027-0.091-0.016-0.203l0.032-0.197-0.117 0.133c-0.096 0.112-0.112 0.117-0.080 0.027 0.16-0.464 0.208-0.507 0.261-0.24z">
    </path>
    <path
        d="M12.064 11.285c-0.005 0.309-0.032 0.453-0.091 0.501-0.096 0.080-0.107 0.245-0.021 0.299 0.075 0.043 0.027 0.469-0.091 0.827-0.080 0.256-0.368 0.592-0.613 0.715-0.176 0.096-0.517 0.469-0.587 0.651-0.053 0.149-0.016 0.245 0.053 0.128 0.027-0.037 0.075-0.053 0.107-0.032 0.037 0.021 0.096 0.005 0.139-0.027 0.043-0.037 0.112-0.053 0.16-0.037 0.043 0.021 0.101-0.005 0.128-0.059 0.043-0.069 0.064-0.075 0.117-0.027 0.053 0.053 0.091 0.048 0.171-0.027 0.096-0.085 0.107-0.085 0.165 0 0.064 0.085 0.075 0.085 0.155 0.005s0.096-0.080 0.192 0.005c0.101 0.091 0.107 0.091 0.171-0.027l0.064-0.123 0.080 0.117c0.075 0.112 0.085 0.112 0.171 0.037 0.091-0.080 0.101-0.080 0.171 0.021 0.043 0.064 0.096 0.096 0.123 0.069 0.021-0.021 0.021 0.016 0.005 0.080-0.021 0.069-0.011 0.128 0.027 0.155 0.048 0.027 0.053 0.011 0.032-0.048-0.027-0.069-0.005-0.091 0.080-0.091 0.101 0 0.107 0.021 0.075 0.299-0.053 0.469-0.224 0.752-0.613 1.035-0.352 0.251-0.592 0.539-0.592 0.709 0 0.085 0.016 0.091 0.080 0.037 0.043-0.032 0.096-0.048 0.128-0.032 0.027 0.016 0.059-0.005 0.080-0.048 0.016-0.043 0.064-0.064 0.112-0.048 0.043 0.021 0.123 0 0.171-0.037 0.069-0.064 0.091-0.064 0.112-0.005 0.016 0.053 0.048 0.048 0.128-0.021 0.085-0.080 0.112-0.085 0.149-0.021s0.059 0.064 0.133 0c0.069-0.059 0.112-0.059 0.187-0.016 0.064 0.043 0.107 0.048 0.149 0.005s0.080-0.043 0.144 0.011c0.064 0.053 0.096 0.053 0.165-0.005s0.091-0.053 0.139 0.027c0.043 0.069 0.069 0.080 0.128 0.027 0.059-0.048 0.075-0.048 0.075 0.005 0 0.037 0.032 0.053 0.075 0.037s0.091-0.005 0.101 0.032c0.016 0.043 0.064 0.027 0.149-0.053l0.117-0.117-0.133-0.203c-0.075-0.117-0.272-0.299-0.437-0.416-0.245-0.165-0.315-0.251-0.395-0.475-0.133-0.352-0.187-0.709-0.117-0.752 0.080-0.048 0.064-0.219-0.027-0.293-0.048-0.037-0.080-0.192-0.096-0.416l-0.016-0.357-0.011 0.379c-0.011 0.299-0.032 0.389-0.096 0.416-0.053 0.021-0.075 0.075-0.059 0.139 0.037 0.144-0.053 0.139-0.096-0.005-0.021-0.069-0.005-0.144 0.048-0.203 0.048-0.053 0.085-0.165 0.085-0.256 0-0.133-0.043-0.192-0.267-0.341-0.299-0.203-0.389-0.363-0.507-0.869-0.075-0.325-0.075-0.363 0.005-0.485 0.085-0.128 0.085-0.144-0.021-0.256-0.091-0.096-0.117-0.203-0.133-0.544l-0.016-0.427-0.011 0.432z">
    </path>
    <path
        d="M15.6 11.131c-0.149 0.037-0.24 0.123-0.24 0.219 0 0.043-0.224 0.309-0.491 0.592-0.453 0.475-0.72 0.853-0.816 1.163-0.043 0.155 0.080 0.165 0.213 0.016 0.053-0.059 0.149-0.107 0.219-0.107s0.139-0.027 0.155-0.059c0.021-0.027 0.101-0.043 0.181-0.021 0.085 0.016 0.181 0 0.245-0.043 0.064-0.048 0.176-0.069 0.299-0.053 0.107 0.016 0.245 0 0.309-0.032 0.080-0.048 0.139-0.048 0.224-0.005 0.085 0.048 0.149 0.048 0.267 0 0.123-0.053 0.171-0.053 0.235 0 0.048 0.043 0.155 0.053 0.261 0.037 0.128-0.021 0.208-0.005 0.251 0.048 0.037 0.043 0.117 0.075 0.176 0.069 0.064-0.011 0.165 0.011 0.229 0.048 0.128 0.069 0.283 0.085 0.283 0.021 0-0.021-0.075-0.16-0.16-0.315-0.181-0.315-0.64-0.827-0.955-1.056-0.117-0.091-0.245-0.229-0.277-0.309-0.096-0.229-0.283-0.293-0.608-0.213z">
    </path>
    <path
        d="M22.912 12.325c-0.155 0.555-0.235 0.741-0.443 1.051-0.277 0.4-0.416 0.72-0.469 1.093l-0.037 0.251h0.155c0.128 0 0.192-0.048 0.331-0.235 0.363-0.512 0.693-1.413 0.699-1.904 0-0.16-0.197-0.379-0.235-0.256z">
    </path>
    <path
        d="M23.579 13.232c-0.080 0.368-0.304 0.853-0.555 1.179-0.192 0.245-0.197 0.309-0.043 0.309s0.965-1.12 0.965-1.333c0-0.048-0.069-0.165-0.155-0.267l-0.155-0.187-0.059 0.299z">
    </path>
    <path
        d="M15.525 13.072c-0.069 0.027-0.171 0.037-0.229 0.016-0.053-0.016-0.16 0.011-0.229 0.053-0.080 0.053-0.181 0.075-0.261 0.053-0.075-0.016-0.181 0.005-0.256 0.053s-0.144 0.069-0.165 0.053c-0.059-0.059-0.347 0.272-0.357 0.411-0.021 0.213 0.011 0.299 0.048 0.133 0.016-0.091 0.053-0.155 0.075-0.144 0.027 0.005 0.080-0.027 0.112-0.080 0.048-0.059 0.101-0.080 0.165-0.053 0.064 0.021 0.117 0 0.171-0.075 0.053-0.080 0.112-0.096 0.208-0.075 0.091 0.021 0.165 0.005 0.235-0.059 0.091-0.080 0.128-0.085 0.261-0.027 0.117 0.048 0.181 0.048 0.267 0 0.064-0.032 0.192-0.043 0.299-0.021 0.123 0.021 0.219 0.011 0.267-0.032 0.069-0.059 0.117-0.053 0.256 0.027 0.149 0.075 0.197 0.080 0.299 0.032 0.101-0.053 0.139-0.053 0.219 0.021 0.059 0.053 0.139 0.075 0.203 0.059 0.059-0.021 0.128 0 0.171 0.048 0.037 0.043 0.112 0.080 0.165 0.080 0.059 0 0.101 0.037 0.101 0.080 0 0.107 0.085 0.101 0.128-0.005 0.043-0.112-0.107-0.288-0.24-0.288-0.053 0-0.117-0.037-0.144-0.091-0.032-0.053-0.085-0.075-0.144-0.048-0.064 0.021-0.139-0.005-0.224-0.085-0.128-0.117-0.133-0.117-0.299-0.027-0.16 0.096-0.171 0.096-0.235 0.005-0.059-0.080-0.096-0.085-0.267-0.032-0.128 0.037-0.219 0.043-0.251 0.011-0.064-0.064-0.176-0.064-0.347 0.005z">
    </path>
    <path
        d="M16.155 13.573c-0.112 0.059-0.176 0.064-0.304 0.016-0.139-0.053-0.181-0.048-0.272 0.032-0.096 0.085-0.112 0.085-0.229 0.011-0.123-0.080-0.139-0.080-0.256 0.048-0.117 0.123-0.133 0.128-0.219 0.048-0.085-0.075-0.107-0.075-0.229 0.011-0.080 0.048-0.155 0.075-0.171 0.059-0.032-0.032-0.261 0.187-0.304 0.299-0.016 0.043 0.005 0.123 0.043 0.181 0.069 0.091 0.075 0.085 0.080-0.059 0-0.112 0.021-0.144 0.080-0.117 0.053 0.021 0.080-0.005 0.080-0.080 0-0.091 0.021-0.107 0.128-0.080 0.091 0.021 0.149 0.005 0.181-0.053 0.043-0.075 0.069-0.075 0.171-0.021 0.107 0.059 0.133 0.053 0.197-0.032 0.059-0.080 0.096-0.085 0.219-0.043 0.107 0.043 0.176 0.037 0.267-0.021 0.101-0.064 0.144-0.069 0.245-0.011 0.096 0.048 0.149 0.048 0.245 0s0.144-0.048 0.24 0c0.091 0.048 0.149 0.048 0.229 0.005 0.149-0.080 0.155-0.075 0.187 0.053 0.027 0.091 0.048 0.101 0.139 0.053 0.139-0.075 0.165-0.075 0.165 0.021 0 0.048 0.048 0.080 0.133 0.080 0.096 0 0.123 0.021 0.101 0.080-0.037 0.091 0.165 0.117 0.219 0.027 0.048-0.080-0.080-0.277-0.165-0.245-0.037 0.016-0.096-0.016-0.128-0.069-0.032-0.069-0.091-0.091-0.16-0.075-0.064 0.016-0.155-0.011-0.208-0.064-0.080-0.069-0.128-0.075-0.213-0.027-0.085 0.043-0.139 0.037-0.229-0.021-0.107-0.069-0.144-0.069-0.261-0.005z">
    </path>
    <path
        d="M19.797 13.909c-0.005 0.096-0.037 0.229-0.075 0.293s-0.064 0.283-0.069 0.491c0 0.352 0.016 0.405 0.336 1.035 0.32 0.635 0.389 0.875 0.165 0.592-0.128-0.165-0.496-0.885-0.544-1.067-0.027-0.101-0.048-0.117-0.085-0.059-0.059 0.085 0.069 0.475 0.304 0.955 0.091 0.181 0.149 0.331 0.128 0.331-0.069 0-0.421-0.395-0.512-0.571-0.043-0.091-0.091-0.24-0.096-0.331-0.016-0.181-0.048-0.203-0.149-0.085-0.053 0.064-0.037 0.133 0.075 0.368 0.080 0.16 0.213 0.368 0.299 0.459 0.091 0.096 0.16 0.181 0.16 0.192 0 0.016-0.091-0.021-0.197-0.080-0.267-0.133-0.427-0.309-0.512-0.565-0.037-0.112-0.085-0.181-0.101-0.155-0.059 0.091 0.112 0.475 0.283 0.624 0.208 0.192 0.176 0.235-0.064 0.075-0.112-0.075-0.213-0.208-0.267-0.352-0.075-0.203-0.091-0.219-0.117-0.112-0.043 0.16 0.032 0.336 0.213 0.501 0.171 0.16 0.069 0.197-0.139 0.053-0.117-0.085-0.123-0.085-0.069 0.016 0.117 0.213 0.192 0.235 0.464 0.144 0.24-0.085 0.528-0.085 1.307-0.005 0.123 0.011 0.133-0.005 0.117-0.176-0.032-0.475-0.080-0.651-0.208-0.8-0.208-0.251-0.112-0.245 0.117 0.005 0.192 0.213 0.197 0.235 0.176 0.533-0.027 0.336 0.027 0.368 0.112 0.075 0.101-0.368-0.053-0.619-0.581-0.955-0.235-0.149-0.432-0.619-0.325-0.789 0.064-0.107 0.032-0.309-0.048-0.309-0.027 0-0.059-0.112-0.069-0.256-0.011-0.176-0.021-0.197-0.027-0.075zM20.187 15.531c0.213 0.251 0.347 0.571 0.341 0.816v0.213l-0.096-0.267c-0.133-0.373-0.293-0.677-0.469-0.88-0.123-0.149-0.128-0.165-0.032-0.117 0.059 0.032 0.176 0.139 0.256 0.235z">
    </path>
    <path
        d="M15.632 13.936c-0.048 0.064 0.048 0.080 0.544 0.107 0.325 0.021 0.677 0.059 0.773 0.085 0.101 0.032 0.171 0.032 0.171 0 0-0.027-0.037-0.048-0.080-0.048s-0.080-0.027-0.080-0.059c0-0.032-0.048-0.043-0.107-0.021-0.064 0.021-0.144 0.005-0.187-0.027-0.043-0.037-0.133-0.053-0.197-0.037-0.064 0.021-0.149 0.005-0.187-0.027-0.053-0.043-0.107-0.043-0.208 0.005-0.091 0.037-0.165 0.043-0.235 0.005-0.128-0.069-0.133-0.069-0.208 0.016z">
    </path>
    <path
        d="M24.096 13.973c-0.053 0.197-0.395 0.571-0.624 0.693-0.149 0.080-0.165 0.101-0.080 0.107 0.064 0 0.149 0.053 0.197 0.117 0.075 0.123 0.080 0.123 0.192 0.021 0.192-0.171 0.389-0.635 0.368-0.864-0.016-0.187-0.021-0.192-0.053-0.075z">
    </path>
    <path
        d="M15.253 14c-0.059 0.069-0.043 0.080 0.101 0.080 0.176 0 0.224-0.075 0.080-0.128-0.112-0.043-0.107-0.043-0.181 0.048z">
    </path>
    <path
        d="M14.88 14.053c-0.032 0.043-0.096 0.059-0.139 0.043s-0.075 0.005-0.075 0.059c0 0.048-0.043 0.085-0.112 0.085-0.059 0-0.091 0.021-0.075 0.053 0.016 0.027 0.011 0.053-0.021 0.053s-0.043 0.037-0.027 0.080c0.027 0.064 0.043 0.064 0.101 0.011 0.032-0.037 0.176-0.128 0.315-0.197 0.133-0.075 0.245-0.149 0.245-0.165 0-0.075-0.155-0.091-0.213-0.021z">
    </path>
    <path
        d="M15.547 14.315c-0.411 0.064-0.827 0.219-0.827 0.309 0 0.027 0.085 0.011 0.192-0.037 0.341-0.139 1.061-0.203 1.541-0.128 0.235 0.037 0.48 0.101 0.549 0.144 0.064 0.043 0.117 0.053 0.117 0.021 0-0.096-0.235-0.208-0.635-0.293-0.213-0.053-0.421-0.085-0.453-0.085-0.032 0.005-0.251 0.037-0.485 0.069z">
    </path>
    <path
        d="M11.44 14.384c-0.256 0.027-0.827 0.187-0.853 0.229-0.016 0.027 0.021 0.064 0.085 0.080 0.069 0.021 0.133 0.011 0.155-0.027s0.080-0.053 0.128-0.037c0.053 0.021 0.101 0.005 0.117-0.043 0.021-0.043 0.059-0.064 0.085-0.048 0.027 0.021 0.112 0 0.192-0.037 0.107-0.059 0.139-0.064 0.16-0.005 0.016 0.053 0.037 0.053 0.096 0.005 0.080-0.064 0.101-0.16 0.037-0.149-0.027 0.005-0.112 0.021-0.203 0.032z">
    </path>
    <path d="M11.803 14.437c0.085 0.085 0.096 0.085 0.181 0s0.080-0.091-0.091-0.091c-0.171 0-0.176 0.005-0.091 0.091z">
    </path>
    <path
        d="M12.107 14.368c0 0.011 0.032 0.048 0.075 0.080 0.053 0.048 0.085 0.043 0.139-0.021 0.059-0.069 0.043-0.080-0.075-0.080-0.075 0-0.139 0.011-0.139 0.021z">
    </path>
    <path
        d="M12.48 14.4c0 0.080 0.112 0.123 0.171 0.064 0.032-0.032 0.011-0.059-0.059-0.080-0.064-0.016-0.112-0.005-0.112 0.016z">
    </path>
    <path
        d="M17.349 14.453c-0.069 0.027-0.123 0.096-0.123 0.149 0 0.080 0.048 0.101 0.283 0.112 0.149 0.005 0.304 0.037 0.331 0.069 0.037 0.037-0.053 0.048-0.293 0.032l-0.347-0.016-0.016 0.347c-0.011 0.347-0.011 0.347 0.091 0.229l0.101-0.123 0.091 0.139c0.085 0.128 0.085 0.133-0.011 0.085-0.16-0.085-0.283 0.043-0.277 0.288 0.011 0.16 0.016 0.176 0.032 0.059 0.016-0.112 0.053-0.144 0.155-0.144 0.123 0 0.128 0.016 0.128 0.347v0.347h0.368c0.331 0 0.373 0.011 0.453 0.133 0.048 0.075 0.112 0.133 0.139 0.133 0.032 0 0.053-0.379 0.053-0.976v-0.976l-0.149-0.144c-0.133-0.128-0.187-0.144-0.523-0.139-0.203 0-0.421 0.021-0.485 0.048zM18.24 14.827c0 0.144-0.016 0.16-0.16 0.16-0.133 0-0.16-0.021-0.16-0.123 0-0.069 0.016-0.144 0.037-0.16 0.016-0.021 0.091-0.037 0.16-0.037 0.101 0 0.123 0.027 0.123 0.16zM18.24 15.253c0 0.144-0.016 0.16-0.16 0.16-0.133 0-0.16-0.021-0.16-0.123 0-0.069 0.016-0.144 0.037-0.16 0.016-0.021 0.091-0.037 0.16-0.037 0.101 0 0.123 0.027 0.123 0.16zM18.24 15.68c0 0.144-0.016 0.16-0.16 0.16s-0.16-0.016-0.16-0.16c0-0.144 0.016-0.16 0.16-0.16s0.16 0.016 0.16 0.16zM18.24 16.080c0 0.112-0.027 0.133-0.16 0.133s-0.16-0.021-0.16-0.133c0-0.112 0.027-0.133 0.16-0.133s0.16 0.021 0.16 0.133z">
    </path>
    <path
        d="M15.584 14.56c-0.24 0.027-0.485 0.091-0.629 0.171-0.203 0.107-0.235 0.149-0.235 0.288v0.165l0.283-0.096c0.555-0.181 1.499-0.171 1.973 0.032 0.075 0.032 0.091 0.011 0.091-0.117 0-0.219-0.187-0.368-0.507-0.411-0.523-0.069-0.592-0.075-0.976-0.032z">
    </path>
    <path
        d="M11.445 14.667c-0.080 0.027-0.085 0.048-0.037 0.075 0.037 0.027 0.096 0.016 0.128-0.016 0.075-0.075 0.032-0.107-0.091-0.059z">
    </path>
    <path
        d="M11.68 14.661c0 0.096 0.096 0.112 0.16 0.032 0.053-0.069 0.048-0.080-0.048-0.080-0.059 0-0.112 0.021-0.112 0.048z">
    </path>
    <path
        d="M12 14.635c0 0.011 0.032 0.048 0.075 0.080 0.053 0.048 0.085 0.043 0.139-0.021 0.059-0.069 0.043-0.080-0.075-0.080-0.075 0-0.139 0.011-0.139 0.021z">
    </path>
    <path
        d="M12.32 14.635c0 0.011 0.032 0.048 0.075 0.080 0.053 0.048 0.085 0.043 0.139-0.021 0.059-0.069 0.043-0.080-0.075-0.080-0.075 0-0.139 0.011-0.139 0.021z">
    </path>
    <path
        d="M12.693 14.72c0.048 0.091 0.075 0.096 0.16 0.043 0.096-0.064 0.101-0.069 0.011-0.107-0.181-0.069-0.235-0.053-0.171 0.064z">
    </path>
    <path
        d="M14.245 14.725c-0.117 0.096-0.128 0.139-0.117 0.491 0.011 0.347 0.027 0.4 0.165 0.539 0.085 0.091 0.176 0.139 0.197 0.117s0.037-0.283 0.032-0.581c-0.016-0.619-0.075-0.736-0.277-0.565z">
    </path>
    <path
        d="M10.96 14.757c-0.299 0.085-0.384 0.144-0.299 0.197 0.032 0.021 0.059 0.011 0.059-0.027 0-0.032 0.043-0.048 0.101-0.032 0.064 0.016 0.117-0.005 0.133-0.053 0.021-0.048 0.069-0.064 0.133-0.043 0.053 0.016 0.128-0.005 0.165-0.053 0.080-0.096 0.048-0.096-0.293 0.011z">
    </path>
    <path
        d="M21.867 14.827c-0.16 0.016-0.384 0.091-0.496 0.155-0.272 0.165-0.213 0.203 0.080 0.053 0.139-0.075 0.421-0.149 0.709-0.187s0.384-0.059 0.24-0.059c-0.133 0-0.373 0.016-0.533 0.037z">
    </path>
    <path
        d="M23.051 14.869c0.192 0.048 0.411 0.139 0.475 0.197l0.123 0.107-0.107-0.144c-0.112-0.155-0.176-0.181-0.581-0.224-0.256-0.027-0.251-0.021 0.091 0.064z">
    </path>
    <path
        d="M11.515 14.885c-0.224 0.021-0.496 0.064-0.603 0.101-0.197 0.064-0.203 0.069-0.101 0.165 0.096 0.096 0.101 0.096 0.352-0.027 0.336-0.171 0.747-0.219 1.248-0.144 0.267 0.043 0.427 0.043 0.459 0.011 0.037-0.037 0.032-0.064-0.021-0.080-0.128-0.048-0.912-0.059-1.333-0.027z">
    </path>
    <path
        d="M21.52 15.104c-0.117 0.064-0.187 0.123-0.149 0.133 0.032 0.011 0.128-0.011 0.213-0.053 0.24-0.123 1.099-0.165 1.525-0.075 0.203 0.043 0.347 0.059 0.32 0.037-0.091-0.085-0.624-0.16-1.152-0.16-0.448 0.005-0.581 0.027-0.757 0.117z">
    </path>
    <path
        d="M15.547 15.12c-0.235 0.037-0.507 0.096-0.597 0.139-0.16 0.064-0.176 0.091-0.176 0.293 0 0.123 0.032 0.245 0.069 0.277 0.048 0.043 0.059 0 0.043-0.187-0.011-0.133 0.011-0.267 0.043-0.299 0.043-0.043 0.059 0.043 0.053 0.309 0 0.347-0.011 0.384-0.16 0.501l-0.16 0.123 0.027-0.283c0.021-0.203 0.016-0.251-0.016-0.155-0.027 0.075-0.048 0.187-0.053 0.256s-0.101 0.213-0.219 0.325c-0.187 0.181-0.213 0.229-0.213 0.448 0 0.139 0.021 0.251 0.053 0.251 0.027 0 0.165-0.048 0.309-0.101 0.651-0.256 2.491-0.251 2.853 0.005 0.187 0.133 0.213 0.107 0.165-0.149-0.037-0.197-0.192-0.405-0.336-0.453-0.080-0.027-0.155-0.416-0.165-0.821-0.005-0.331-0.112-0.421-0.56-0.475-0.176-0.021-0.368-0.048-0.427-0.059s-0.299 0.016-0.533 0.053zM15.68 15.467v0.267l0.181-0.203c0.208-0.224 0.315-0.203 0.149 0.027-0.053 0.080-0.155 0.251-0.219 0.373-0.080 0.16-0.149 0.229-0.224 0.229-0.091 0-0.101-0.021-0.069-0.096 0.021-0.048 0.053-0.267 0.064-0.48 0.021-0.432 0.117-0.528 0.117-0.117zM16.48 15.573c0 0.213-0.021 0.373-0.053 0.373s-0.053-0.16-0.053-0.373c0-0.213 0.021-0.373 0.053-0.373s0.053 0.16 0.053 0.373zM16.933 15.691c0.064 0.128 0.064 0.149 0.011 0.080-0.107-0.133-0.128-0.117-0.171 0.123-0.032 0.187-0.053 0.213-0.176 0.213-0.133-0.005-0.133-0.011-0.048-0.075 0.048-0.037 0.091-0.101 0.091-0.139 0-0.059 0.165-0.373 0.197-0.373 0.005 0 0.053 0.080 0.096 0.171zM15.467 15.904c0 0.021-0.021 0.048-0.048 0.064-0.043 0.027-0.165-0.235-0.165-0.336 0.005-0.043 0.208 0.224 0.213 0.272zM16.421 16.181c-0.011 0.011-0.080 0.037-0.155 0.059-0.133 0.043-0.133 0.043-0.032-0.075 0.069-0.075 0.123-0.096 0.16-0.059 0.027 0.027 0.043 0.059 0.027 0.075zM15.040 16.219c0 0.027-0.053 0.048-0.112 0.048-0.096 0-0.101-0.011-0.048-0.080 0.064-0.080 0.16-0.064 0.16 0.032zM15.787 16.507c0.048 0.059 0.016 0.064-0.149 0.043-0.123-0.016-0.261 0-0.336 0.043-0.117 0.059-0.123 0.059-0.048-0.027 0.149-0.187 0.405-0.213 0.533-0.059zM16.843 16.533c0.123 0.117 0.165 0.213 0.053 0.117-0.037-0.027-0.155-0.091-0.256-0.133-0.171-0.075-0.176-0.080-0.048-0.085 0.075-0.005 0.187 0.043 0.251 0.101z">
    </path>
    <path
        d="M11.6 15.2c-0.261 0.048-0.56 0.171-0.56 0.224 0 0.059 0.032 0.053 0.256-0.048 0.139-0.059 0.379-0.091 0.784-0.101 0.667-0.011 0.704-0.016 0.48-0.075-0.203-0.053-0.683-0.053-0.96 0z">
    </path>
    <path
        d="M22.117 15.371c-0.229 0.021-0.496 0.080-0.587 0.123-0.128 0.064-0.139 0.075-0.037 0.048 0.555-0.133 1.536-0.155 1.84-0.043 0.059 0.021 0.091 0.021 0.069-0.005-0.043-0.043-0.667-0.187-0.789-0.176-0.043 0-0.267 0.027-0.496 0.053z">
    </path>
    <path
        d="M11.627 15.397c-0.229 0.037-0.517 0.181-0.517 0.261 0 0.091-0.021 0.096 0.272-0.037 0.181-0.080 0.347-0.107 0.608-0.101 0.395 0.011 0.603-0.037 0.48-0.112-0.069-0.048-0.587-0.053-0.843-0.011z">
    </path>
    <path
        d="M22 15.621c-0.395 0.048-0.565 0.096-0.624 0.187-0.048 0.069 0.011 0.576 0.069 0.64 0.027 0.032 0.048-0.053 0.048-0.197 0-0.139 0.027-0.251 0.053-0.251 0.059 0 0.075 0.709 0.016 0.763-0.053 0.059-0.176-0.075-0.181-0.197-0.005-0.075-0.016-0.085-0.032-0.027-0.011 0.048 0.016 0.187 0.053 0.309 0.075 0.213 0.075 0.219-0.037 0.213-0.304-0.027-0.331 0.005-0.4 0.448-0.037 0.208-0.032 0.251 0.032 0.229 0.72-0.277 1.616-0.352 2.283-0.197 0.256 0.064 0.469 0.112 0.475 0.112 0.011 0 0-0.101-0.021-0.224-0.027-0.139-0.096-0.272-0.181-0.341-0.128-0.112-0.133-0.149-0.149-0.725-0.016-0.587-0.021-0.603-0.155-0.667-0.181-0.091-0.784-0.123-1.248-0.075zM22.24 16.299c0 0.309 0.011 0.347 0.096 0.32s0.277 0.011 0.501 0.101c0.080 0.032 0.069-0.011-0.048-0.219l-0.139-0.261 0.139 0.128 0.144 0.128v-0.272c0-0.155 0.027-0.277 0.053-0.277 0.032 0 0.053 0.139 0.053 0.304 0 0.277 0.005 0.293 0.080 0.197 0.091-0.123 0.091-0.117 0.005 0.208-0.032 0.139-0.085 0.251-0.107 0.251-0.021-0.005-0.101 0.032-0.176 0.080-0.128 0.085-0.149 0.085-0.341 0-0.149-0.069-0.272-0.085-0.459-0.059l-0.251 0.032 0.117-0.123c0.112-0.123 0.112-0.123 0.011-0.293-0.128-0.208-0.101-0.219 0.080-0.027l0.133 0.149v-0.363c0-0.203 0.021-0.357 0.053-0.357s0.053 0.155 0.053 0.352zM22.405 17.125c0.123 0.101 0.123 0.107 0.011 0.053-0.144-0.075-0.373-0.075-0.416-0.005-0.016 0.027-0.064 0.053-0.096 0.053-0.101-0.005 0.176-0.213 0.283-0.213 0.053 0 0.149 0.048 0.219 0.112zM23.413 17.264c0.069 0.075 0.069 0.075-0.048 0.016-0.069-0.032-0.192-0.053-0.277-0.043-0.155 0.027-0.213-0.032-0.085-0.085 0.096-0.043 0.32 0.016 0.411 0.112zM21.387 17.307c0.053 0.064 0.048 0.080-0.027 0.080-0.053 0-0.144 0.043-0.203 0.091-0.101 0.096-0.107 0.096-0.016-0.080 0.096-0.192 0.149-0.208 0.245-0.091z">
    </path>
    <path
        d="M11.68 15.675c-0.293 0.043-0.48 0.16-0.48 0.293 0 0.091 0.011 0.091 0.123 0.021 0.064-0.043 0.261-0.096 0.432-0.117 0.347-0.037 0.512-0.123 0.395-0.197-0.075-0.053-0.117-0.048-0.469 0z">
    </path>
    <path
        d="M11.349 16.085c-0.133 0.069-0.149 0.107-0.149 0.357 0 0.256 0.011 0.283 0.123 0.283 0.064 0 0.149-0.043 0.187-0.096s0.096-0.085 0.123-0.069c0.027 0.021 0.048-0.011 0.048-0.064s0.048-0.187 0.101-0.299l0.101-0.197h-0.197c-0.107 0.005-0.256 0.043-0.336 0.085z">
    </path>
    <path
        d="M17.232 16.139c0 0.059 0.016 0.075 0.032 0.032 0.016-0.037 0.011-0.085-0.005-0.101-0.016-0.021-0.032 0.011-0.027 0.069z">
    </path>
    <path
        d="M12.197 16.512c-0.389 0.091-0.448 0.128-0.331 0.192 0.059 0.037 0.107 0.037 0.144 0 0.032-0.032 0.091-0.043 0.128-0.027 0.043 0.016 0.075 0 0.075-0.037s0.043-0.053 0.107-0.037c0.053 0.016 0.133-0.005 0.165-0.048 0.043-0.053 0.080-0.059 0.128-0.021s0.085 0.032 0.133-0.027c0.059-0.069 0.043-0.080-0.085-0.075-0.085 0-0.293 0.037-0.464 0.080z">
    </path>
    <path
        d="M12.88 16.48c0.016 0.027 0.064 0.053 0.107 0.053s0.091-0.027 0.107-0.053c0.021-0.032-0.027-0.053-0.107-0.053s-0.128 0.021-0.107 0.053z">
    </path>
    <path
        d="M13.227 16.507c0.064 0.080 0.16 0.064 0.16-0.032 0-0.027-0.053-0.048-0.112-0.048-0.096 0-0.101 0.011-0.048 0.080z">
    </path>
    <path
        d="M13.525 16.507c0.021 0.043 0.037 0.080 0.048 0.080 0.005 0 0.043-0.037 0.080-0.080 0.053-0.069 0.048-0.080-0.043-0.080-0.080 0-0.107 0.027-0.085 0.080z">
    </path>
    <path
        d="M13.845 16.56c0.027 0.059 0.053 0.069 0.101 0.027s0.075-0.037 0.096 0.011c0.021 0.043 0.032 0.037 0.032-0.027 0.005-0.064-0.037-0.091-0.128-0.091-0.096 0-0.123 0.021-0.101 0.080z">
    </path>
    <path
        d="M12.747 16.661c0 0.011 0.032 0.048 0.075 0.080 0.053 0.048 0.085 0.043 0.139-0.021 0.059-0.069 0.043-0.080-0.075-0.080-0.075 0-0.139 0.011-0.139 0.021z">
    </path>
    <path
        d="M13.067 16.661c0 0.011 0.032 0.048 0.075 0.080 0.053 0.048 0.085 0.043 0.139-0.021 0.059-0.069 0.043-0.080-0.075-0.080-0.075 0-0.139 0.011-0.139 0.021z">
    </path>
    <path
        d="M13.424 16.72c0.032 0.091 0.133 0.080 0.165-0.016 0.011-0.037-0.027-0.064-0.091-0.064-0.075 0-0.101 0.027-0.075 0.080z">
    </path>
    <path
        d="M13.717 16.763c0.037 0.075 0.069 0.085 0.123 0.037 0.053-0.043 0.075-0.043 0.091 0.005 0.011 0.037 0.053 0.048 0.085 0.027 0.117-0.075 0.064-0.128-0.144-0.149-0.187-0.016-0.203-0.011-0.155 0.080z">
    </path>
    <path
        d="M12.203 16.757c-0.112 0.032-0.203 0.075-0.203 0.101 0 0.064 0.091 0.059 0.133-0.005 0.021-0.032 0.080-0.043 0.133-0.027 0.059 0.016 0.107 0 0.128-0.053 0.016-0.043 0.021-0.080 0.016-0.075s-0.101 0.032-0.208 0.059z">
    </path>
    <path d="M12.523 16.757c0.048 0.048 0.080 0.048 0.128 0s0.037-0.064-0.064-0.064c-0.101 0-0.112 0.016-0.064 0.064z">
    </path>
    <path
        d="M17.707 16.96c0 0.117 0.027 0.213 0.053 0.213 0.032 0 0.053 0.027 0.053 0.059s0.064 0.128 0.144 0.208c0.112 0.117 0.16 0.144 0.213 0.096 0.053-0.043 0.091-0.043 0.133 0s0.080 0.037 0.128-0.032c0.107-0.139 0.091-0.363-0.043-0.571-0.112-0.171-0.144-0.187-0.4-0.187h-0.283v0.213z">
    </path>
    <path
        d="M19.307 16.784c-0.043 0.016-0.139 0.053-0.208 0.080-0.24 0.085-0.069 0.101 0.213 0.021 0.352-0.107 0.741-0.107 0.992-0.005 0.219 0.091 0.229 0.096 0.229 0.037 0-0.128-0.965-0.229-1.227-0.133z">
    </path>
    <path
        d="M11.557 16.837c-0.016 0.027-0.16 0.048-0.315 0.043s-0.299 0.016-0.32 0.048c-0.133 0.197 0.085 0.357 0.299 0.219 0.059-0.037 0.192-0.085 0.288-0.107 0.091-0.021 0.171-0.053 0.171-0.069 0-0.080-0.096-0.181-0.123-0.133z">
    </path>
    <path
        d="M11.84 16.912c0 0.027 0.027 0.037 0.053 0.021 0.032-0.016 0.053-0.043 0.053-0.059 0-0.011-0.021-0.021-0.053-0.021-0.027 0-0.053 0.027-0.053 0.059z">
    </path>
    <path
        d="M12.667 16.885c-0.405 0.064-0.72 0.139-0.72 0.176 0 0.027 0.032 0.075 0.075 0.107 0.059 0.048 0.117 0.037 0.272-0.053 0.245-0.144 0.789-0.192 1.275-0.107 0.192 0.032 0.389 0.075 0.432 0.096 0.117 0.043 0.080-0.107-0.037-0.155s-1.083-0.096-1.296-0.064z">
    </path>
    <path
        d="M18.613 16.949c0 0.027 0.075 0.064 0.16 0.075 0.176 0.027 0.149-0.032-0.037-0.091-0.069-0.016-0.123-0.011-0.123 0.016z">
    </path>
    <path
        d="M19.259 16.965c-0.096 0.032-0.165 0.064-0.155 0.075 0.011 0.016 0.107 0 0.208-0.027 0.235-0.069 0.8-0.069 0.992 0 0.139 0.048 0.144 0.048 0.048-0.027-0.123-0.091-0.795-0.101-1.093-0.021z">
    </path>
    <path
        d="M19.669 17.051c0.064 0.011 0.171 0.011 0.24 0 0.064-0.011 0.011-0.021-0.123-0.021s-0.187 0.011-0.117 0.021z">
    </path>
    <path
        d="M19.253 17.115c-0.059 0.037-0.075 0.123-0.064 0.347l0.021 0.299h1.163v-0.267c0-0.203-0.021-0.267-0.080-0.267s-0.080 0.064-0.080 0.24c0 0.139-0.027 0.24-0.059 0.24-0.037 0-0.053-0.101-0.037-0.272l0.016-0.277-0.464 0.032c-0.261 0.016-0.469 0.021-0.469 0.011 0-0.016 0.080-0.048 0.176-0.075 0.101-0.032 0.128-0.048 0.064-0.053-0.059 0-0.144 0.021-0.187 0.043zM19.68 17.44c0 0.117-0.021 0.213-0.053 0.213-0.027 0-0.053-0.096-0.053-0.213s0.027-0.213 0.053-0.213c0.032 0 0.053 0.096 0.053 0.213z">
    </path>
    <path
        d="M20.096 17.104c0.032 0.011 0.096 0.011 0.133 0 0.032-0.016 0.005-0.027-0.069-0.027s-0.101 0.011-0.064 0.027z">
    </path>
    <path
        d="M11.541 17.157c-0.171 0.032-0.432 0.288-0.469 0.453l-0.032 0.149h0.619c0.544 0 0.613-0.011 0.587-0.085-0.016-0.048-0.032-0.112-0.032-0.149 0-0.053-0.512-0.427-0.549-0.4-0.005 0.005-0.059 0.021-0.123 0.032z">
    </path>
    <path
        d="M12.523 17.205c-0.144 0.043-0.256 0.101-0.256 0.133s0.037 0.032 0.107-0.005c0.24-0.128 0.661-0.16 1.093-0.085 0.235 0.037 0.437 0.064 0.443 0.053 0.011-0.005-0.107-0.053-0.261-0.096-0.347-0.107-0.789-0.101-1.125 0z">
    </path>
    <path
        d="M15.147 17.179c-0.507 0.053-0.907 0.213-0.907 0.368 0 0.091 0.021 0.101 0.133 0.075 0.075-0.016 0.133-0.011 0.133 0.016 0 0.032-0.059 0.080-0.133 0.112-0.16 0.075-0.181 0.192-0.027 0.144 0.133-0.043 0.133-0.037 0.016 1.056-0.048 0.459-0.075 0.848-0.059 0.864s0.165-0.027 0.341-0.085c0.277-0.101 0.432-0.117 1.355-0.123 0.971-0.005 1.056 0 1.301 0.112l0.256 0.123-0.032-0.443c-0.016-0.24-0.043-0.715-0.064-1.056l-0.032-0.619-0.171-0.085c-0.091-0.048-0.245-0.096-0.347-0.101-0.101-0.011-0.192-0.043-0.203-0.075-0.032-0.091 0.443 0.011 0.661 0.139l0.181 0.107-0.016-0.144c-0.011-0.096-0.075-0.176-0.181-0.24-0.309-0.181-1.291-0.245-2.208-0.144zM16.443 17.365c0.368 0.064 0.203 0.117-0.363 0.117-0.309 0-0.56-0.021-0.56-0.043 0-0.096 0.539-0.133 0.923-0.075zM15.419 17.461c-0.032 0.037-0.187 0.085-0.341 0.101-0.149 0.016-0.331 0.043-0.395 0.064-0.075 0.021-0.123 0.016-0.123-0.016 0-0.085 0.405-0.197 0.768-0.219 0.123-0.005 0.139 0.011 0.091 0.069zM16.043 18.331c0.005-0.443 0.032-0.731 0.064-0.731s0.059 0.288 0.064 0.731l0.011 0.736 0.016-0.709 0.021-0.704h0.187c0.176 0 0.192 0.011 0.16 0.117-0.016 0.069-0.123 0.491-0.229 0.933-0.112 0.448-0.219 0.816-0.235 0.816s-0.139-0.416-0.272-0.923l-0.24-0.917 0.384-0.053 0.027 0.72 0.032 0.72 0.011-0.736zM15.36 17.717c0 0.149-0.395 1.856-0.432 1.856-0.059 0-0.075-0.304-0.059-1.109 0.011-0.416 0.043-0.757 0.069-0.757s0.053 0.304 0.059 0.677l0.011 0.683 0.016-0.667c0.016-0.448 0.043-0.677 0.085-0.704 0.101-0.064 0.251-0.048 0.251 0.021zM16.992 17.707c0.059 0 0.075 0.123 0.075 0.651 0 0.357-0.016 0.635-0.032 0.619-0.021-0.027-0.288-1.221-0.288-1.307 0-0.016 0.037-0.011 0.085 0.005s0.117 0.032 0.16 0.032zM14.821 18.331l-0.005 0.629-0.101-0.48c-0.123-0.608-0.123-0.704-0.005-0.736 0.048-0.016 0.096-0.027 0.107-0.032 0.005 0 0.005 0.277 0.005 0.619zM17.216 18.437c0.011-0.571 0.048-0.725 0.144-0.571 0.043 0.075-0.139 1.707-0.187 1.707-0.021 0-0.064-0.123-0.091-0.267-0.032-0.149-0.032-0.267-0.011-0.267 0.027 0 0.053-0.304 0.059-0.683l0.011-0.677 0.064 1.387 0.011-0.629z">
    </path>
    <path
        d="M18.613 17.44c0 0.155 0.027 0.267 0.059 0.267s0.091 0.037 0.139 0.080c0.128 0.133 0.229 0.005 0.229-0.293 0-0.219-0.016-0.261-0.117-0.288-0.277-0.075-0.309-0.048-0.309 0.235z">
    </path>
    <path
        d="M10.528 17.467c-0.085 0.208-0.101 0.507-0.021 0.507 0.027 0 0.133-0.037 0.235-0.085 0.155-0.075 0.187-0.123 0.203-0.309 0.027-0.235-0.021-0.299-0.213-0.299-0.091 0-0.144 0.048-0.203 0.187z">
    </path>
    <path
        d="M12.827 17.36c-0.027 0.011-0.144 0.032-0.261 0.053-0.405 0.069-0.155 0.069 0.315 0 0.336-0.048 0.411-0.069 0.24-0.069-0.133 0-0.261 0.005-0.293 0.016z">
    </path>
    <path
        d="M13.467 17.419c0.059 0.016 0.176 0.053 0.267 0.080 0.112 0.037 0.139 0.032 0.101-0.005-0.032-0.032-0.149-0.069-0.267-0.080-0.112-0.011-0.16-0.011-0.101 0.005z">
    </path>
    <path
        d="M12.523 17.531c-0.144 0.021-0.149 0.037-0.149 0.325v0.304h1.44v-0.277c0-0.277 0-0.277-0.197-0.331-0.197-0.059-0.795-0.064-1.093-0.021zM13.12 17.792c0 0.144-0.021 0.229-0.053 0.208-0.027-0.016-0.053-0.128-0.053-0.245 0-0.112 0.027-0.208 0.053-0.208 0.032 0 0.053 0.112 0.053 0.245zM12.576 17.872c-0.011 0.101-0.037 0.176-0.069 0.171-0.064-0.016-0.101-0.261-0.053-0.379 0.053-0.139 0.144 0.011 0.123 0.208zM13.707 17.867c0 0.117-0.021 0.213-0.053 0.213-0.027 0-0.053-0.096-0.053-0.213s0.027-0.213 0.053-0.213c0.032 0 0.053 0.096 0.053 0.213z">
    </path>
    <path
        d="M17.888 17.707c0.187 0.331 0.181 0.373-0.075 0.373-0.176 0-0.213 0.016-0.213 0.107 0 0.059 0.021 0.107 0.053 0.107 0.080 0 0.144 0.165 0.187 0.469 0.032 0.256 0.027 0.288-0.064 0.309-0.085 0.027-0.107 0.080-0.117 0.32l-0.011 0.288h0.699v-0.293c0-0.256-0.016-0.293-0.101-0.293s-0.112-0.053-0.144-0.299c-0.037-0.299 0.027-0.555 0.139-0.555 0.027 0 0.101 0.048 0.165 0.112l0.112 0.112 0.123-0.117c0.107-0.101 0.117-0.133 0.064-0.219-0.037-0.059-0.101-0.101-0.149-0.101s-0.128-0.085-0.187-0.187c-0.107-0.203-0.128-0.219-0.224-0.123-0.048 0.048-0.101 0.027-0.229-0.096l-0.165-0.155 0.139 0.24z">
    </path>
    <path
        d="M17.632 17.733c-0.043 0.171-0.027 0.203 0.123 0.176 0.112-0.016 0.112-0.016 0.011-0.165l-0.096-0.155-0.037 0.144z">
    </path>
    <path
        d="M21.653 17.707c-0.288 0.053-0.891 0.277-0.901 0.336-0.005 0.027 0.085 0.117 0.203 0.203l0.219 0.155v0.693c0 0.581 0.016 0.731 0.101 0.896 0.112 0.219 0.112 0.219 0.112 0.411v0.133h2.4v-0.411c0-0.384-0.016-0.448-0.251-0.933-0.144-0.288-0.267-0.523-0.283-0.523s-0.101 0.341-0.181 0.757c-0.187 0.928-0.176 0.896-0.325 0.896-0.091 0-0.133-0.037-0.155-0.149-0.021-0.080-0.133-0.501-0.256-0.939-0.208-0.757-0.224-0.784-0.288-0.64-0.091 0.208-0.096 0.080 0-0.139 0.037-0.096 0.085-0.155 0.096-0.128 0.016 0.027 0.144 0.389 0.277 0.805 0.245 0.741 0.315 0.891 0.299 0.64-0.005-0.064-0.011-0.363-0.005-0.667 0.005-0.443 0.021-0.544 0.085-0.544s0.080 0.096 0.085 0.517l0.005 0.523 0.123-0.453c0.075-0.251 0.149-0.523 0.171-0.608 0.043-0.144 0.059-0.123 0.32 0.416 0.155 0.309 0.288 0.565 0.299 0.565s0.021-0.251 0.016-0.56c-0.005-0.448-0.021-0.565-0.085-0.581-0.491-0.144-1.040-0.203-1.531-0.171-0.507 0.027-0.549 0.021-0.549-0.064s0.075-0.107 0.587-0.155c0.539-0.053 0.619-0.048 1.061 0.064 0.459 0.117 0.475 0.117 0.501 0.021 0.032-0.123 0.053-0.112-0.501-0.283-0.485-0.144-1.115-0.176-1.648-0.085z">
    </path>
    <path
        d="M19.483 17.904c0.048 0.011 0.123 0.011 0.16 0 0.032-0.016-0.005-0.027-0.096-0.027-0.085 0-0.117 0.011-0.064 0.027z">
    </path>
    <path
        d="M19.845 17.888c0.011 0.011 0.139 0.032 0.283 0.048 0.16 0.016 0.229 0.005 0.187-0.021-0.069-0.043-0.517-0.069-0.469-0.027z">
    </path>
    <path
        d="M19.2 17.973c-0.043 0.027-0.053 0.053-0.027 0.053 0.032 0 0.091-0.027 0.133-0.053s0.059-0.053 0.027-0.053c-0.027 0-0.091 0.027-0.133 0.053z">
    </path>
    <path
        d="M10.709 18.165c-0.251 0.128-0.256 0.133-0.256 0.395v0.261l0.229-0.085c0.123-0.048 0.496-0.101 0.827-0.123s0.624-0.059 0.645-0.085c0.027-0.027 0.064-0.149 0.085-0.277l0.037-0.224h-0.661c-0.592 0.005-0.683 0.016-0.907 0.139zM11.2 18.373c0 0.101-0.021 0.187-0.053 0.187-0.027 0-0.053-0.085-0.053-0.187s0.027-0.187 0.053-0.187c0.032 0 0.053 0.085 0.053 0.187zM11.573 18.373c0 0.101-0.021 0.187-0.053 0.187-0.027 0-0.053-0.085-0.053-0.187s0.027-0.187 0.053-0.187c0.032 0 0.053 0.085 0.053 0.187zM11.947 18.373c0 0.101-0.021 0.187-0.053 0.187-0.027 0-0.053-0.085-0.053-0.187s0.027-0.187 0.053-0.187c0.032 0 0.053 0.085 0.053 0.187zM10.933 18.459c0 0.053-0.021 0.101-0.053 0.101-0.027 0-0.053-0.064-0.053-0.139s0.021-0.123 0.053-0.101c0.032 0.016 0.053 0.080 0.053 0.139zM10.544 18.651c-0.016 0.053-0.027 0.011-0.027-0.091s0.011-0.144 0.027-0.096c0.011 0.053 0.011 0.139 0 0.187zM10.773 18.533c0 0.075-0.021 0.133-0.053 0.133-0.027 0-0.053-0.059-0.053-0.133s0.027-0.133 0.053-0.133c0.032 0 0.053 0.059 0.053 0.133z">
    </path>
    <path
        d="M19.387 18.085c-0.117 0.027-0.267 0.075-0.331 0.112-0.112 0.059-0.117 0.064-0.032 0.208l0.085 0.144 0.107-0.128c0.149-0.192 0.389-0.304 0.512-0.235 0.128 0.064 0.336 0.325 0.299 0.363-0.016 0.016-0.069-0.021-0.112-0.091-0.181-0.256-0.491-0.224-0.688 0.080-0.075 0.117-0.080 0.155-0.027 0.171 0.107 0.037 0.32 0.261 0.32 0.336 0 0.032-0.064 0-0.139-0.080-0.197-0.197-0.368-0.181-0.587 0.059-0.101 0.107-0.181 0.165-0.181 0.123 0-0.037 0.096-0.16 0.219-0.277 0.219-0.208 0.24-0.331 0.075-0.469-0.059-0.048-0.107-0.037-0.235 0.059-0.187 0.133-0.224 0.347-0.069 0.384 0.075 0.021 0.075 0.027 0.005 0.032-0.059 0.005-0.101 0.075-0.123 0.224-0.043 0.251-0.016 0.304 0.096 0.213 0.091-0.075 0.213-0.027 0.373 0.149l0.101 0.112 0.096-0.155c0.053-0.085 0.149-0.187 0.213-0.219 0.059-0.037 0.213-0.171 0.336-0.299 0.128-0.128 0.267-0.235 0.315-0.235 0.053 0 0.091-0.043 0.091-0.107 0-0.053 0.069-0.187 0.16-0.283l0.16-0.181-0.283-0.037c-0.341-0.037-0.485-0.032-0.757 0.027z">
    </path>
    <path
        d="M20.613 18.293c0.085 0.085 0.139 0.171 0.123 0.187-0.011 0.016-0.069-0.021-0.123-0.080-0.128-0.139-0.267-0.133-0.368 0.011-0.128 0.176-0.107 0.24 0.069 0.213 0.085-0.011 0.171 0.005 0.187 0.037 0.027 0.037-0.011 0.059-0.096 0.059-0.133 0-0.133 0-0.043 0.155l0.091 0.16 0.096-0.155c0.101-0.16 0.261-0.245 0.357-0.187 0.032 0.016 0.053-0.021 0.053-0.096 0-0.085-0.069-0.181-0.208-0.293-0.267-0.213-0.341-0.219-0.139-0.011z">
    </path>
    <path
        d="M12.507 18.277c-0.224 0.059-0.213 0.133 0.011 0.096 0.315-0.048 1.029-0.053 1.189 0 0.107 0.032 0.123 0.027 0.069-0.032-0.069-0.069-1.061-0.123-1.269-0.064z">
    </path>
    <path
        d="M12.56 18.491c-0.251 0.091-0.267 0.107-0.283 0.293-0.011 0.139 0.005 0.203 0.048 0.203 0.037 0 0.133 0.059 0.208 0.133l0.139 0.133 0.128-0.133c0.069-0.075 0.155-0.133 0.197-0.133 0.101 0 0.085-0.144-0.037-0.267-0.149-0.149-0.24-0.133-0.395 0.064-0.075 0.096-0.139 0.144-0.139 0.101 0-0.037 0.085-0.155 0.187-0.256l0.192-0.192 0.155 0.149c0.213 0.203 0.203 0.336-0.053 0.581-0.235 0.229-0.256 0.288-0.117 0.336 0.117 0.043 0.331 0.235 0.331 0.293 0 0.027-0.064 0-0.139-0.059-0.251-0.197-0.512-0.128-0.725 0.192-0.053 0.085-0.096 0.123-0.096 0.096 0-0.101 0.208-0.395 0.341-0.485 0.133-0.085 0.139-0.091 0.043-0.245-0.144-0.251-0.251-0.283-0.384-0.112-0.139 0.181-0.192 0.379-0.112 0.459 0.085 0.085 0.075 0.133-0.032 0.123-0.064-0.005-0.107 0.059-0.149 0.208-0.048 0.155-0.096 0.219-0.176 0.229-0.064 0.011-0.117 0.043-0.117 0.075 0 0.043 0.235 0.048 0.789 0.027 0.715-0.032 0.827-0.053 1.264-0.219 0.261-0.096 0.485-0.208 0.496-0.24 0.037-0.107-0.101-0.219-0.315-0.251-0.24-0.043-0.277-0.165-0.101-0.341 0.139-0.139 0.203-0.133 0.357 0.011 0.069 0.064 0.123 0.085 0.123 0.053 0-0.085-0.219-0.224-0.352-0.224-0.059 0-0.155 0.043-0.203 0.101-0.085 0.096-0.096 0.091-0.256-0.059l-0.165-0.155 0.107-0.144c0.139-0.187 0.245-0.203 0.432-0.069 0.144 0.101 0.149 0.101 0.213 0.005 0.053-0.085 0.032-0.112-0.176-0.213-0.325-0.16-0.885-0.192-1.227-0.069zM13.867 19.776c0.133 0.080 0.133 0.085-0.176 0.155-0.171 0.037-0.357 0.091-0.411 0.123-0.128 0.069-0.133 0.043-0.027-0.16 0.144-0.277 0.315-0.309 0.613-0.117zM12.747 19.973c0 0.101-0.021 0.187-0.053 0.187-0.027 0-0.053-0.085-0.053-0.187s0.027-0.187 0.053-0.187c0.032 0 0.053 0.085 0.053 0.187z">
    </path>
    <path
        d="M10.784 18.816l-0.229 0.091 0.021 0.8c0.032 0.955 0.043 1.003 0.272 0.96 0.325-0.064 0.357-0.085 0.325-0.187-0.021-0.069 0.005-0.101 0.096-0.128 0.075-0.016 0.144-0.080 0.16-0.139 0.016-0.069 0.069-0.107 0.155-0.107 0.107 0 0.133-0.037 0.187-0.267s0.048-0.304-0.048-0.597l-0.112-0.336-0.123 0.347c-0.155 0.443-0.165 0.373-0.016-0.112 0.064-0.203 0.128-0.357 0.149-0.347 0.021 0.016 0.085 0.16 0.139 0.32 0.059 0.165 0.117 0.299 0.133 0.299 0.053 0 0.267-0.453 0.267-0.576 0-0.112-0.011-0.117-0.571-0.112-0.4 0-0.645 0.032-0.805 0.091zM11.253 19.253c0 0.213-0.021 0.373-0.053 0.373-0.059 0-0.075-0.656-0.016-0.709 0.064-0.069 0.069-0.037 0.069 0.336zM10.939 19.744c0.053 0.416 0.101 0.768 0.101 0.773 0 0.011-0.021 0.016-0.043 0.016-0.027 0-0.085-0.331-0.133-0.736-0.101-0.789-0.107-0.896-0.059-0.853 0.016 0.021 0.075 0.379 0.133 0.8zM10.688 19.621c-0.021 0.149-0.048 0.267-0.059 0.251-0.016-0.016-0.011-0.149 0.011-0.299s0.048-0.261 0.064-0.251c0.011 0.016 0.005 0.149-0.016 0.299zM10.827 20.235c0 0.192-0.021 0.363-0.053 0.379-0.032 0.021-0.053-0.107-0.053-0.341 0-0.219 0.021-0.379 0.053-0.379s0.053 0.149 0.053 0.341z">
    </path>
    <path
        d="M19.787 18.912l-0.165 0.144 0.171 0.080c0.091 0.048 0.213 0.16 0.267 0.245 0.059 0.091 0.101 0.139 0.101 0.107s0.064-0.128 0.144-0.208l0.149-0.144 0.133 0.155c0.080 0.091 0.176 0.144 0.235 0.133 0.053-0.011 0.123 0.011 0.149 0.053s0.043-0.053 0.037-0.267c-0.011-0.277-0.032-0.347-0.123-0.395s-0.128-0.032-0.256 0.112l-0.155 0.171-0.149-0.16c-0.187-0.203-0.32-0.208-0.539-0.027z">
    </path>
    <path
        d="M10.187 19.093c0 0.085 0.027 0.16 0.053 0.16 0.032 0 0.053-0.075 0.053-0.16 0-0.091-0.021-0.16-0.053-0.16-0.027 0-0.053 0.069-0.053 0.16z">
    </path>
    <path
        d="M19.52 19.237c-0.043 0.016-0.165 0.112-0.272 0.213l-0.197 0.187-0.16-0.117c-0.208-0.155-0.405-0.128-0.427 0.059-0.016 0.128 0.005 0.144 0.235 0.176 0.139 0.016 0.368 0.032 0.507 0.032h0.261v-0.187c0-0.149 0.021-0.187 0.107-0.187s0.107 0.037 0.107 0.187v0.187h0.667c0.523 0 0.667-0.016 0.667-0.069 0-0.117-0.181-0.261-0.245-0.197-0.037 0.037-0.085 0.021-0.155-0.053-0.128-0.139-0.261-0.133-0.368 0.011l-0.085 0.123-0.117-0.139c-0.192-0.219-0.347-0.288-0.523-0.224z">
    </path>
    <path
        d="M10.171 19.451c-0.016 0.080-0.005 0.176 0.021 0.208s-0.053 0.309-0.203 0.704c-0.277 0.736-0.277 0.709 0.059 1.397 0.139 0.283 0.197 0.352 0.341 0.395 0.128 0.037 0.213 0.027 0.309-0.027l0.139-0.075-0.176-0.144c-0.096-0.080-0.16-0.165-0.139-0.181 0.021-0.021 0.011-0.069-0.021-0.107-0.043-0.053-0.027-0.085 0.048-0.133 0.080-0.053 0.096-0.091 0.059-0.176-0.064-0.149-0.208-0.795-0.181-0.821 0.011-0.011 0.075 0.155 0.139 0.373 0.128 0.405 0.181 0.512 0.24 0.453 0.016-0.016-0.048-0.245-0.155-0.501-0.229-0.581-0.315-0.885-0.325-1.173-0.011-0.283-0.112-0.411-0.155-0.192zM10.304 21.003c0.016 0.64 0.005 0.704-0.075 0.704-0.053 0-0.096-0.027-0.096-0.053 0-0.032 0.027-0.053 0.053-0.053 0.032 0 0.059-0.341 0.064-0.896 0.011-0.96 0.032-0.843 0.053 0.299zM10.16 21.051c-0.027 0.277-0.059 0.389-0.107 0.389-0.133 0-0.133-0.091-0.011-0.619 0.096-0.421 0.123-0.491 0.133-0.341 0.011 0.101 0.005 0.363-0.016 0.571z">
    </path>
    <path
        d="M9.173 19.605c0 0.144-0.021 0.299-0.053 0.341-0.027 0.048-0.027 0.101 0 0.133 0.032 0.043-0.107 0.379-0.4 0.981-0.251 0.507-0.453 0.923-0.453 0.928s0.203 0.005 0.453-0.005l0.453-0.016 0.011-0.757 0.005-0.757 0.053 0.784 0.053 0.789h0.256c0.144 0 0.261-0.016 0.261-0.037 0-0.096-0.288-1.099-0.416-1.429-0.091-0.245-0.144-0.512-0.16-0.773-0.021-0.459-0.064-0.576-0.064-0.181zM8.907 21.216c-0.080 0.293-0.261 0.672-0.304 0.635-0.016-0.016 0.053-0.251 0.149-0.523 0.176-0.496 0.277-0.571 0.155-0.112z">
    </path>
    <path
        d="M14.72 19.872c-0.256 0.043-0.747 0.197-0.747 0.235 0 0.021 0.032 0.069 0.075 0.101 0.059 0.048 0.144 0.037 0.389-0.064 0.587-0.24 2.427-0.24 2.928 0 0.165 0.080 0.192 0.080 0.267 0.005s0.059-0.091-0.176-0.176c-0.213-0.080-0.459-0.101-1.429-0.112-0.645-0.005-1.232 0-1.307 0.011z">
    </path>
    <path
        d="M17.84 20c0.101 0.096 0.197 0.101 1.749 0.117 0.901 0.011 1.637 0 1.637-0.021s-0.037-0.075-0.085-0.117c-0.069-0.075-0.304-0.085-1.744-0.085-1.648 0-1.659 0-1.557 0.107z">
    </path>
    <path
        d="M13.445 20.352c-0.261 0.117-0.352 0.128-1.104 0.128h-0.821v0.187c0 0.181 0.005 0.187 0.203 0.187 0.107-0.005 0.256-0.037 0.331-0.080 0.101-0.059 0.347-0.075 1.003-0.080h0.864v-0.139c0-0.144-0.085-0.341-0.149-0.336-0.021 0-0.165 0.059-0.325 0.133z">
    </path>
    <path
        d="M18.843 20.251c0.373 0.011 0.981 0.011 1.36 0 0.373-0.005 0.064-0.016-0.683-0.016s-1.056 0.011-0.677 0.016z">
    </path>
    <path
        d="M15.12 20.368c-0.464 0.048-0.917 0.149-0.965 0.224-0.048 0.080 0.096 0.053 0.405-0.064 0.267-0.101 0.4-0.112 1.477-0.117 1.115 0 1.189 0.005 1.376 0.117 0.117 0.069 0.187 0.085 0.176 0.048-0.016-0.037-0.080-0.096-0.155-0.133-0.16-0.080-1.728-0.128-2.315-0.075z">
    </path>
    <path
        d="M17.947 20.427l-0.096 0.107 0.875-0.032c0.917-0.032 1.008-0.043 1.008-0.117 0-0.027-0.379-0.053-0.843-0.059-0.789-0.011-0.848-0.005-0.944 0.101z">
    </path>
    <path
        d="M20.187 20.533l-0.427 0.032 0.619 0.011c0.395 0.005 0.635 0.032 0.677 0.075 0.037 0.037 0.064 0.043 0.064 0.011 0-0.107-0.133-0.181-0.315-0.171-0.107 0.005-0.384 0.027-0.619 0.043z">
    </path>
    <path
        d="M19.040 20.581c-0.475 0.032-0.432 0.112 0.053 0.112 0.192 0 0.283 0.037 0.443 0.165l0.197 0.16v-0.24c0-0.224-0.011-0.245-0.117-0.235-0.069 0.005-0.325 0.021-0.576 0.037z">
    </path>
    <path
        d="M17.76 20.693c-0.059 0.037 0.021 0.053 0.267 0.053s0.325-0.016 0.267-0.053c-0.043-0.027-0.165-0.053-0.267-0.053s-0.224 0.027-0.267 0.053z">
    </path>
    <path
        d="M14.512 20.789c-0.277 0.107-0.379 0.261-0.133 0.203 0.085-0.021 0.779-0.069 1.541-0.107s1.397-0.075 1.413-0.080c0.016-0.005-0.011-0.032-0.053-0.059-0.048-0.032-0.603-0.053-1.307-0.048-1.024 0-1.264 0.016-1.461 0.091z">
    </path>
    <path
        d="M19.867 20.747c-0.016 0.032 0.005 0.037 0.048 0.021 0.096-0.037 0.112-0.075 0.037-0.075-0.032 0-0.069 0.021-0.085 0.053z">
    </path>
    <path d="M21.376 20.96l-0.021 0.213h3.019v-0.427h-2.976l-0.021 0.213z"></path>
    <path
        d="M12.053 20.907c-0.101 0.059-0.272 0.101-0.373 0.107-0.128 0-0.309 0.080-0.56 0.24-0.203 0.133-0.357 0.24-0.336 0.24s0.261-0.069 0.533-0.155c0.448-0.139 0.587-0.155 1.504-0.187 1.051-0.032 1.211-0.069 1.136-0.267-0.027-0.075-0.155-0.085-0.875-0.085-0.725 0.005-0.869 0.016-1.029 0.107z">
    </path>
    <path
        d="M18.533 20.859c-0.261 0.021-0.677 0.059-0.923 0.075-0.24 0.021-0.427 0.059-0.405 0.085 0.016 0.027-0.512 0.048-1.285 0.048-1.045 0-1.381 0.016-1.664 0.091-0.341 0.085-0.352 0.091-0.24 0.165 0.091 0.059 0.117 0.128 0.117 0.325 0 0.443 0.016 0.437-1.205 0.421l-1.072-0.016 0.027 0.251c0.021 0.224 0.011 0.261-0.091 0.299l-0.117 0.043 0.107 0.096c0.155 0.139 0.149 0.459 0 0.597-0.219 0.197-0.315 0.469-0.315 0.901 0 0.389 0.005 0.4 0.133 0.4 0.123 0 0.133-0.021 0.133-0.256 0-0.139 0.016-0.347 0.037-0.464 0.032-0.197 0.027-0.208-0.053-0.139-0.123 0.096-0.112 0.011 0.016-0.155l0.101-0.133 0.048 0.133c0.048 0.123 0.037 0.539-0.016 0.864-0.021 0.144-0.016 0.149 0.213 0.149h0.24v-0.56c0-0.523 0.005-0.56 0.107-0.56s0.107 0.037 0.107 0.56c0 0.464 0.016 0.56 0.080 0.56s0.080-0.101 0.080-0.576c0-0.656-0.069-0.843-0.245-0.704-0.096 0.075-0.096 0.069 0-0.043 0.133-0.149 0.149-0.149 0.261 0.048 0.069 0.128 0.091 0.288 0.091 0.72 0 0.624 0.037 0.672 0.283 0.373 0.117-0.149 0.144-0.24 0.144-0.469 0-0.155 0.016-0.443 0.032-0.64l0.037-0.357 0.304 0.155c0.171 0.085 0.32 0.192 0.341 0.24 0.016 0.048 0.032 0.352 0.032 0.672v0.581h5.291l-0.037-0.949c-0.027-0.656-0.021-0.992 0.021-1.099 0.032-0.085 0.053-0.165 0.037-0.176-0.011-0.016-0.464 0.016-1.003 0.064-0.805 0.069-1.035 0.075-1.317 0.021-0.507-0.096-2.517-0.032-2.805 0.091-0.16 0.064-0.368 0.085-0.928 0.080-0.395-0.005-0.752-0.032-0.8-0.064-0.059-0.037 0.144-0.048 0.661-0.027 0.661 0.021 0.784 0.011 1.067-0.091 0.272-0.096 0.475-0.112 1.381-0.133 0.656-0.016 1.211 0 1.44 0.037 0.304 0.048 0.565 0.048 1.275-0.021 0.491-0.043 0.928-0.080 0.971-0.080 0.069 0 0.080-0.123 0.080-0.747v-0.747l-0.144 0.005c-0.085 0.005-0.363 0.027-0.629 0.053zM15.195 21.248c0.037 0.043 0.059 0.192 0.048 0.336-0.016 0.256-0.016 0.256-0.203 0.256-0.181 0-0.187-0.005-0.203-0.235-0.027-0.336 0.197-0.555 0.357-0.357zM15.829 21.237c0.037 0.037 0.064 0.181 0.064 0.32v0.256h-0.427v-0.256c0-0.267 0.064-0.384 0.213-0.384 0.048 0 0.112 0.027 0.149 0.064zM16.507 21.52c0 0.283-0.011 0.32-0.107 0.32-0.091 0-0.107-0.043-0.123-0.261-0.021-0.32 0.016-0.421 0.133-0.395 0.080 0.016 0.096 0.075 0.096 0.336zM17.973 21.312c0.032 0.075 0.053 0.219 0.053 0.32 0 0.171-0.011 0.181-0.192 0.181h-0.197l0.032-0.267c0.016-0.149 0.048-0.293 0.064-0.32 0.059-0.101 0.187-0.053 0.24 0.085zM18.811 21.339c0.037 0.069 0.069 0.192 0.069 0.272 0 0.133-0.016 0.149-0.187 0.149-0.139 0-0.187-0.021-0.192-0.096-0.027-0.443 0.155-0.635 0.309-0.325zM14.496 21.525c0.011 0.213-0.005 0.272-0.096 0.331-0.101 0.064-0.107 0.053-0.107-0.245 0-0.171 0.016-0.331 0.037-0.352 0.085-0.085 0.149 0.021 0.165 0.267zM17.024 21.467c0.059 0.277 0.021 0.357-0.155 0.336-0.139-0.016-0.149-0.032-0.133-0.229 0.021-0.293 0.048-0.357 0.155-0.336 0.059 0.011 0.107 0.096 0.133 0.229z">
    </path>
    <path
        d="M21.013 20.885c0 0.075-0.043 0.085-0.288 0.059-0.165-0.016-0.309-0.005-0.341 0.027-0.037 0.037-0.091 0.032-0.171-0.011-0.064-0.032-0.176-0.048-0.245-0.032-0.283 0.075-0.096 0.117 0.512 0.112 0.565 0 0.64-0.011 0.64-0.091 0-0.048-0.021-0.107-0.053-0.123-0.027-0.016-0.053 0.005-0.053 0.059z">
    </path>
    <path
        d="M19.573 21.099c0 0.155 0.144 0.181 0.88 0.171l0.747-0.011-0.72-0.016c-0.571-0.016-0.736-0.037-0.811-0.107-0.053-0.048-0.096-0.064-0.096-0.037z">
    </path>
    <path
        d="M12.821 21.28c-0.768 0.021-0.859 0.037-0.843 0.117 0.005 0.048-0.021 0.117-0.064 0.155-0.069 0.053-0.064 0.075 0.011 0.16 0.048 0.053 0.075 0.133 0.059 0.181-0.032 0.069 0.091 0.080 0.976 0.080h1.013l0.032-0.128c0.059-0.235 0-0.405-0.165-0.501-0.139-0.080-0.277-0.085-1.019-0.064z">
    </path>
    <path
        d="M19.413 21.701c0 0.315 0.021 0.48 0.053 0.459 0.080-0.048 0.064 0.069-0.053 0.453-0.096 0.309-0.107 0.432-0.075 1.179l0.037 0.832 0.224-0.128 0.229-0.123-0.005-0.32c-0.005-0.24-0.021-0.32-0.080-0.32-0.064 0-0.069-0.043-0.032-0.229 0.027-0.123 0.048-0.629 0.048-1.125v-0.896l-0.171-0.133-0.176-0.139v0.491z">
    </path>
    <path
        d="M11.184 21.515l-0.581 0.229 0.181 0.139 0.176 0.144-0.16 0.155c-0.16 0.16-0.165 0.16-0.507 0.112-0.192-0.027-0.843-0.053-1.451-0.053h-1.104l-0.016 0.544c-0.011 0.304 0 0.571 0.021 0.603 0.053 0.064 0.053 0.363 0 0.427-0.021 0.032-0.032 0.229-0.021 0.437l0.021 0.389h0.576v-0.661c0-0.368 0.021-0.725 0.048-0.795 0.112-0.293 0.432-0.208 0.517 0.139l0.043 0.171 0.021-0.187c0.021-0.224 0.144-0.373 0.304-0.373s0.277 0.144 0.208 0.256c-0.027 0.048-0.048 0.245-0.043 0.437 0.011 0.192 0.016 0.496 0.016 0.677l0.005 0.336h1.157l0.037-0.325c0.064-0.613 0.32-1.013 0.805-1.259 0.149-0.075 0.277-0.144 0.288-0.155 0.011-0.005-0.037-0.080-0.101-0.165-0.107-0.139-0.107-0.149-0.021-0.213 0.053-0.037 0.112-0.069 0.139-0.069 0.021 0 0.043-0.059 0.043-0.133s-0.016-0.133-0.032-0.133c-0.016 0-0.181 0.085-0.363 0.187-0.187 0.101-0.363 0.187-0.395 0.187-0.101 0-0.075-0.304 0.043-0.528 0.128-0.251 0.32-0.411 0.592-0.496 0.144-0.043 0.208-0.091 0.208-0.16 0-0.053-0.016-0.096-0.037-0.091-0.027 0-0.304 0.107-0.619 0.229zM8.213 22.587v0.24l0.133-0.085c0.208-0.133 0.181-0.075-0.075 0.192l-0.229 0.24 0.032-0.213c0.016-0.117 0.032-0.304 0.032-0.416 0-0.107 0.027-0.197 0.053-0.197 0.032 0 0.053 0.107 0.053 0.24zM7.947 22.773c0 0.144-0.021 0.267-0.053 0.267-0.027 0-0.053-0.123-0.053-0.267 0-0.149 0.027-0.267 0.053-0.267 0.032 0 0.053 0.117 0.053 0.267zM9.76 22.72c0 0.117-0.021 0.213-0.053 0.213-0.027 0-0.053-0.096-0.053-0.213s0.027-0.213 0.053-0.213c0.032 0 0.053 0.096 0.053 0.213zM9.376 22.667c0.091 0.059 0.171 0.133 0.171 0.171 0 0.032-0.053 0.011-0.123-0.053-0.064-0.059-0.176-0.133-0.251-0.165-0.075-0.027-0.096-0.053-0.053-0.053 0.043-0.005 0.16 0.043 0.256 0.101zM10.656 23.008c0.016 0.293 0.011 0.299-0.091 0.235-0.133-0.080-0.144-0.149-0.032-0.149 0.117 0 0.101-0.251-0.027-0.357-0.144-0.128-0.133-0.208 0.016-0.112 0.096 0.064 0.123 0.139 0.133 0.384zM8.853 22.747c0 0.075-0.021 0.133-0.053 0.133-0.027 0-0.053-0.059-0.053-0.133s0.027-0.133 0.053-0.133c0.032 0 0.053 0.059 0.053 0.133zM9.808 23.061c0.048 0.059 0.032 0.064-0.075 0.043-0.075-0.011-0.117-0.043-0.101-0.069 0.043-0.069 0.107-0.059 0.176 0.027zM10.293 23.088c0.027 0.059 0.053 0.411 0.053 0.779v0.672l-0.144-0.016-0.149-0.016-0.005-0.667c-0.005-0.635 0.027-0.853 0.139-0.853 0.027 0 0.075 0.048 0.107 0.101zM8.123 23.488c0.059 0.144-0.021 0.304-0.144 0.288-0.085-0.011-0.117-0.059-0.128-0.192-0.016-0.149 0-0.171 0.112-0.171 0.075 0 0.144 0.032 0.16 0.075zM9.787 23.6c0 0.133-0.021 0.16-0.133 0.16-0.085 0-0.139-0.037-0.149-0.096-0.032-0.16 0.032-0.261 0.16-0.24 0.096 0.011 0.123 0.048 0.123 0.176zM8.133 24.213c0 0.107-0.032 0.139-0.144 0.149-0.133 0.016-0.149 0-0.149-0.149s0.016-0.165 0.149-0.149c0.112 0.011 0.144 0.043 0.144 0.149zM9.76 24.187c0 0.107-0.027 0.133-0.133 0.133-0.096 0-0.133-0.027-0.133-0.096 0-0.053 0.016-0.117 0.037-0.133 0.016-0.021 0.080-0.037 0.133-0.037 0.069 0 0.096 0.037 0.096 0.133z">
    </path>
    <path
        d="M21.36 22.133v0.8h0.133c0.091 0 0.256 0.112 0.507 0.347l0.373 0.341-0.171 0.005h-0.176v0.693h2.347v-2.987h-3.013v0.8zM22.027 22.347v0.373h-0.533v-0.747h0.533v0.373zM23.029 22.357l0.016 0.363h-0.539v-0.752l0.507 0.032 0.016 0.357zM24 22.347v0.373h-0.48v-0.747h0.48v0.373z">
    </path>
    <path
        d="M9.781 21.499c0.112 0.4 0.16 0.528 0.203 0.528 0.059 0 0.059-0.005-0.091-0.325-0.075-0.16-0.128-0.251-0.112-0.203z">
    </path>
    <path
        d="M19.893 22.24v0.747h1.28v-1.493h-1.28v0.747zM20.341 21.883c0.048 0.037 0.107 0.165 0.123 0.288 0.032 0.24-0.021 0.283-0.315 0.24-0.133-0.021-0.149-0.043-0.149-0.224 0-0.187 0.107-0.373 0.208-0.373 0.021 0 0.080 0.032 0.133 0.069zM20.981 21.931c0.048 0.064 0.085 0.197 0.085 0.293 0 0.171-0.005 0.176-0.24 0.176s-0.24-0.005-0.24-0.176c0-0.192 0.128-0.411 0.24-0.411 0.043 0 0.112 0.053 0.155 0.117z">
    </path>
    <path
        d="M11.44 23.184c-0.395 0.208-0.651 0.629-0.704 1.168l-0.032 0.288h0.427l0.027-0.416c0.032-0.464 0.139-0.768 0.347-0.987 0.165-0.165 0.155-0.171-0.064-0.053z">
    </path>
    <path
        d="M19.845 23.312c-0.032 0.096-0.059 0.192-0.059 0.213 0 0.059 0.875 0.064 1.616 0.011l0.523-0.032-0.171-0.181-0.176-0.176h-1.675l-0.059 0.165z">
    </path>
    <path
        d="M8.928 24.107c0 0.309 0.005 0.432 0.016 0.277 0.011-0.149 0.011-0.405 0-0.56-0.011-0.149-0.016-0.027-0.016 0.283z">
    </path>
    <path
        d="M20.123 23.717c-0.176 0.021-0.176 0.027-0.176 0.315v0.288h1.867v-0.64l-0.757 0.011c-0.421 0-0.843 0.016-0.933 0.027z">
    </path>
    <path
        d="M16.011 25.104l-9.877 0.016 0.011 1.909 0.016 1.904 19.76 0.027v-1.947c0-1.072-0.005-1.941-0.011-1.936-0.011 0.011-4.464 0.021-9.899 0.027zM12.965 25.605c0.421 0.208 0.741 0.741 0.784 1.28 0.032 0.459-0.091 0.869-0.357 1.205-0.624 0.795-1.76 0.587-2.213-0.405-0.149-0.331-0.155-1.067-0.011-1.339 0.416-0.789 1.125-1.077 1.797-0.741zM20.059 25.605c0.277 0.139 0.613 0.544 0.72 0.859 0.133 0.411 0.085 1.003-0.112 1.371-0.736 1.344-2.496 0.747-2.501-0.848 0-0.544 0.203-0.944 0.667-1.296 0.341-0.261 0.821-0.293 1.227-0.085zM9.275 25.579c0.011 0.011-0.021 0.171-0.080 0.352-0.112 0.389-0.133 1.365-0.032 1.605 0.091 0.213 0.235 0.165 0.32-0.096 0.149-0.453 0.123-1.077-0.075-1.776l-0.032-0.117h0.779c0.427 0 0.779 0.005 0.779 0.016s-0.059 0.165-0.133 0.347c-0.075 0.181-0.171 0.549-0.219 0.821-0.117 0.683-0.075 1.013 0.219 1.707 0.037 0.091-0.016 0.096-0.651 0.096-0.379 0-0.704-0.016-0.72-0.032s0.037-0.165 0.128-0.336c0.128-0.251 0.16-0.395 0.181-0.757 0.027-0.491-0.016-0.469-0.165 0.080-0.059 0.219-0.149 0.379-0.272 0.501-0.16 0.16-0.208 0.181-0.379 0.155-0.331-0.059-0.544-0.331-0.795-1.051-0.064-0.192-0.123-0.299-0.123-0.235-0.011 0.219 0.203 0.923 0.379 1.253 0.096 0.187 0.181 0.357 0.192 0.379 0.027 0.064-1.312 0.053-1.349-0.011-0.016-0.027 0.027-0.165 0.096-0.304 0.411-0.816 0.645-2.069 0.437-2.341-0.075-0.096-0.075-0.096-0.080 0.043 0 0.16-0.149 0.277-0.288 0.224-0.181-0.069-0.171-0.475 0.021-0.544 0.101-0.037 1.819-0.021 1.861 0.021zM15.648 25.579c0.048 0.021 0.080 0.208 0.101 0.672 0.021 0.357 0.027 0.656 0.016 0.667-0.011 0.016-0.139-0.187-0.283-0.443-0.277-0.507-0.539-0.821-0.677-0.821-0.203 0-0.080 0.256 0.368 0.773 0.533 0.619 0.683 0.901 0.677 1.296 0 0.219-0.037 0.336-0.144 0.501-0.213 0.32-0.389 0.368-1.12 0.331l-0.613-0.037v-0.405c0-0.224-0.016-0.565-0.037-0.768-0.043-0.453 0.037-0.469 0.197-0.037 0.149 0.395 0.448 0.901 0.603 1.024 0.181 0.144 0.304 0.123 0.304-0.053 0-0.112-0.123-0.299-0.464-0.709-0.549-0.667-0.677-0.917-0.645-1.285 0.032-0.325 0.165-0.512 0.475-0.672 0.213-0.112 0.277-0.123 0.704-0.091 0.256 0.016 0.496 0.043 0.539 0.059zM17.605 25.547h0.256l-0.011 0.987c-0.005 0.544-0.021 0.987-0.037 0.987s-0.096-0.197-0.181-0.443c-0.293-0.837-0.576-1.371-0.731-1.371-0.075 0-0.053 0.523 0.032 0.907 0.107 0.448 0.261 0.853 0.469 1.248 0.16 0.299 0.171 0.309 0.24 0.197 0.155-0.229 0.453-0.069 0.341 0.181-0.117 0.251-0.619 0.4-1.003 0.299-0.347-0.091-0.619-0.325-0.821-0.704-0.176-0.32-0.187-0.368-0.187-0.848 0-0.448 0.016-0.539 0.144-0.779 0.165-0.309 0.459-0.592 0.672-0.64 0.080-0.016 0.171-0.037 0.197-0.048 0.032-0.011 0.123-0.011 0.208 0 0.085 0.016 0.267 0.027 0.411 0.027zM23.296 25.557c0.037 0.037 0.064 0.16 0.064 0.283 0 0.448 0.331 1.344 0.64 1.733l0.107 0.133v-0.245c0-0.421-0.112-0.864-0.331-1.301-0.117-0.235-0.235-0.453-0.267-0.491-0.032-0.043-0.016-0.080 0.059-0.117 0.139-0.080 1.195-0.075 1.269 0 0.043 0.043 0 0.181-0.149 0.507-0.256 0.539-0.421 1.157-0.421 1.573 0 0.272 0.021 0.336 0.192 0.555 0.101 0.139 0.176 0.267 0.155 0.283-0.053 0.059-1.541 0.075-1.616 0.021-0.059-0.037-0.064-0.133-0.027-0.443 0.021-0.219 0.032-0.48 0.016-0.581l-0.027-0.187-0.075 0.24c-0.107 0.363-0.304 0.725-0.464 0.848-0.496 0.389-1.157 0.203-1.387-0.395-0.133-0.357-0.080-0.683 0.213-1.285 0.251-0.517 0.315-0.827 0.203-0.939-0.043-0.043-0.059-0.021-0.048 0.085 0.005 0.101-0.027 0.176-0.107 0.229-0.107 0.069-0.123 0.069-0.224-0.032-0.139-0.139-0.139-0.171 0-0.347 0.107-0.133 0.133-0.139 0.619-0.139 0.501 0 0.507 0 0.469 0.117-0.085 0.267-0.091 1.291-0.005 1.685 0.155 0.741 0.325 0.891 0.523 0.453 0.091-0.192 0.123-0.357 0.123-0.683 0-0.411-0.011-0.448-0.283-0.981-0.213-0.421-0.267-0.565-0.213-0.603 0.112-0.069 0.917-0.053 0.992 0.021z">
    </path>
    <path
        d="M11.877 25.744c-0.069 0.069-0.032 0.245 0.203 0.965 0.373 1.136 0.736 1.781 0.88 1.557 0.069-0.107 0.021-0.352-0.197-0.987-0.411-1.184-0.715-1.712-0.885-1.536z">
    </path>
    <path
        d="M18.987 25.915c0 0.528 0.768 2.379 0.987 2.379 0.091 0 0.107-0.032 0.096-0.251-0.021-0.395-0.629-1.995-0.853-2.24-0.144-0.16-0.229-0.117-0.229 0.112z">
    </path>
</svg>