<svg viewBox="0 0 24 24" fill="none" xmlns="http://www.w3.org/2000/svg">
  <path fill-rule="evenodd" clip-rule="evenodd"
    d="M17.85 6.778c0-.57 0-.979.028-1.3.028-.326.077-.446.1-.485.007-.01.01-.012.012-.014a.362.362 0 0 1 .104-.045c.156-.048.427-.084.906-.084.479 0 .75.036.905.084a.36.36 0 0 1 .104.044c.004.003.006.005.012.015.023.039.073.159.1.486.028.32.029.73.029 1.299v10.444c0 .672-.038 1.128-.101 1.437-.063.31-.137.398-.15.41a.059.059 0 0 1-.021.015.506.506 0 0 1-.127.035c-.165.028-.382.031-.751.031-.375 0-.595-.003-.761-.031a.503.503 0 0 1-.126-.034.05.05 0 0 1-.019-.013c-.01-.011-.083-.098-.145-.41-.062-.31-.1-.766-.1-1.44V6.778ZM19 3.15c-.966 0-1.96.102-2.479.968-.227.378-.302.814-.337 1.216-.034.4-.034.883-.034 1.412v10.476c0 .716.038 1.301.131 1.772.094.47.258.904.571 1.24.33.351.731.497 1.1.56.325.056.69.056 1.008.056h.08c.313 0 .675 0 1-.056.367-.063.767-.208 1.097-.558.315-.334.482-.767.578-1.238.096-.473.135-1.059.135-1.776V6.746c0-.53 0-1.011-.034-1.412-.035-.402-.11-.838-.337-1.216-.52-.866-1.513-.968-2.48-.968ZM10.879 9.5a7.979 7.979 0 0 0-.026.833v7.358c-.025.86.131 1.15.224 1.25.08.086.283.209.923.209.625 0 .834-.122.92-.212.094-.101.254-.392.227-1.244v-7.361c0-.345-.002-.608-.027-.833-.024-.222-.066-.336-.102-.397l-.002-.002c-.023-.04-.148-.251-1.016-.251-.869 0-.994.212-1.017.251l-.001.002c-.037.061-.079.175-.103.397ZM9.523 8.23c.48-.8 1.365-1.08 2.477-1.08 1.111 0 1.997.28 2.476 1.08.213.356.296.742.334 1.083.036.328.036.68.036.996V17.653c.03.976-.12 1.847-.69 2.451-.583.618-1.402.746-2.156.746-.762 0-1.585-.127-2.166-.75-.565-.605-.708-1.477-.681-2.445V10.309c0-.315 0-.668.036-.996.038-.34.121-.727.334-1.083Zm-5.646 6.29c-.026.263-.027.582-.027 1.008v2.766c0 .48.116.612.172.66.092.078.34.196.978.196.624 0 .875-.117.972-.198.06-.051.178-.186.178-.658V15.543l-.007-.202c-.011-.33-.02-.587-.044-.814-.03-.273-.074-.4-.11-.462v-.001c-.01-.02-.096-.214-.99-.214-.896 0-1 .196-1.015.223l-.001.002c-.035.059-.08.181-.106.445Zm-1.36-1.307C3.007 12.38 3.925 12.15 5 12.15c1.077 0 1.986.23 2.466 1.073.207.363.284.765.323 1.121.032.296.043.631.054.96l.006.194V18.293c0 .743-.19 1.462-.784 1.96-.558.468-1.307.596-2.065.596-.766 0-1.518-.127-2.076-.598-.592-.502-.774-1.223-.774-1.958V15.5c0-.391 0-.792.035-1.149.037-.365.117-.77.332-1.138Z"
    stroke="currentColor" stroke-width="0.1" stroke-linecap="round" />
</svg>